<svg width="200" height="120" viewBox="0 0 200 120" xmlns="http://www.w3.org/2000/svg">
  <!-- Background circle -->
  <circle cx="100" cy="60" r="55" fill="#FFFFFF" stroke="#000000" stroke-width="2"/>
  
  <!-- Minivan main body (longer and lower) -->
  <rect x="35" y="50" width="130" height="25" rx="4" ry="4" fill="#FFFF00" stroke="#000000" stroke-width="2"/>
  
  <!-- Minivan front nose -->
  <path d="M 35 55 Q 25 60 35 70 L 35 55" fill="#FFFF00" stroke="#000000" stroke-width="2"/>
  
  <!-- Taxi checkered pattern on roof -->
  <rect x="40" y="45" width="6" height="6" fill="#000000"/>
  <rect x="52" y="45" width="6" height="6" fill="#000000"/>
  <rect x="64" y="45" width="6" height="6" fill="#000000"/>
  <rect x="76" y="45" width="6" height="6" fill="#000000"/>
  <rect x="88" y="45" width="6" height="6" fill="#000000"/>
  <rect x="100" y="45" width="6" height="6" fill="#000000"/>
  <rect x="112" y="45" width="6" height="6" fill="#000000"/>
  <rect x="124" y="45" width="6" height="6" fill="#000000"/>
  <rect x="136" y="45" width="6" height="6" fill="#000000"/>
  <rect x="148" y="45" width="6" height="6" fill="#000000"/>
  
  <rect x="46" y="45" width="6" height="6" fill="#FFFF00"/>
  <rect x="58" y="45" width="6" height="6" fill="#FFFF00"/>
  <rect x="70" y="45" width="6" height="6" fill="#FFFF00"/>
  <rect x="82" y="45" width="6" height="6" fill="#FFFF00"/>
  <rect x="94" y="45" width="6" height="6" fill="#FFFF00"/>
  <rect x="106" y="45" width="6" height="6" fill="#FFFF00"/>
  <rect x="118" y="45" width="6" height="6" fill="#FFFF00"/>
  <rect x="130" y="45" width="6" height="6" fill="#FFFF00"/>
  <rect x="142" y="45" width="6" height="6" fill="#FFFF00"/>
  
  <!-- Windows (minivan style - more rectangular) -->
  <rect x="40" y="52" width="20" height="12" rx="1" ry="1" fill="#FFFFFF" stroke="#000000" stroke-width="1"/>
  <rect x="65" y="52" width="20" height="12" rx="1" ry="1" fill="#FFFFFF" stroke="#000000" stroke-width="1"/>
  <rect x="90" y="52" width="20" height="12" rx="1" ry="1" fill="#FFFFFF" stroke="#000000" stroke-width="1"/>
  <rect x="115" y="52" width="20" height="12" rx="1" ry="1" fill="#FFFFFF" stroke="#000000" stroke-width="1"/>
  <rect x="140" y="52" width="20" height="12" rx="1" ry="1" fill="#FFFFFF" stroke="#000000" stroke-width="1"/>
  
  <!-- Wheels (minivan proportions) -->
  <circle cx="55" cy="80" r="8" fill="#000000" stroke="#000000" stroke-width="1"/>
  <circle cx="55" cy="80" r="5" fill="#FFFFFF"/>
  <circle cx="145" cy="80" r="8" fill="#000000" stroke="#000000" stroke-width="1"/>
  <circle cx="145" cy="80" r="5" fill="#FFFFFF"/>
  
  <!-- Sliding door tracks -->
  <line x1="85" y1="52" x2="85" y2="75" stroke="#000000" stroke-width="1"/>
  <line x1="110" y1="52" x2="110" y2="75" stroke="#000000" stroke-width="1"/>
  
  <!-- Door handles -->
  <rect x="62" y="60" width="2" height="3" rx="1" ry="1" fill="#000000"/>
  <rect x="87" y="60" width="2" height="3" rx="1" ry="1" fill="#000000"/>
  <rect x="112" y="60" width="2" height="3" rx="1" ry="1" fill="#000000"/>
  
  <!-- Headlights -->
  <ellipse cx="30" cy="57" rx="3" ry="2" fill="#FFFFFF" stroke="#000000" stroke-width="1"/>
  <ellipse cx="30" cy="67" rx="3" ry="2" fill="#FFFFFF" stroke="#000000" stroke-width="1"/>
</svg>